<svg width="86" height="108" fill="none" xmlns="http://www.w3.org/2000/svg"><path d="M4.5 23.5L27.5 2l7 22.5H25l-9 25-1 2.5v2l1 2 1 1 2.5.5h2l2-1L26 54l1.5-2 2-3.5L40 21h-5.5L54 0l7.5 21H52l-9.5 26.5L41 51l-1.5 3-2.5 4-2.5 3-3 2.5-2 1.5-2.5 1.5-2 1-3.5 1h-10L9 68l-2.5-1.5-2-2-1.5-2L2 61l-.5-3.5L2 54l11.5-30.5h-9z" fill="#F2032C"/><path d="M41 68l14.5-40h23.28L81 29l2.5 1.5L85 33l1 3.5-.5 4-1 3.5-1.5 3.5-1.5 2.5-2 2-2.5 2-3 1.5-3 1.5-4 .5h-9L54.5 68H41z" fill="#F2032C"/><path d="M61.5 47L65 37h7l1 1 1 1 .5 2-1 2-1 1.5L71 46l-2 1h-7.5z" fill="#0F102F"/><path d="M7.742 84.764V79.57c0-1.06-.382-1.971-1.145-2.734-.752-.752-1.664-1.128-2.735-1.128-1.06 0-1.97.376-2.734 1.128C.376 77.598 0 78.509 0 79.569V95.53c0 1.06.376 1.97 1.128 2.734.763.752 1.675 1.128 2.734 1.128 1.071 0 1.983-.376 2.735-1.128.763-.763 1.145-1.675 1.145-2.734v-9.434H3.914v2.871h.905v6.905a.907.907 0 01-.273.666.965.965 0 01-.684.273.907.907 0 01-.666-.273.88.88 0 01-.29-.666V79.227a.88.88 0 01.29-.666.881.881 0 01.666-.291c.262 0 .49.097.684.29a.907.907 0 01.273.667v5.537h2.923zm6.761-.547c.467 0 .746.08.838.24v-2.82a3.233 3.233 0 00-1.453.444 5.338 5.338 0 00-.376.273l-.085.086c-.023.023-.029.034-.018.034v-.666h-2.87V99h2.905V85.157c0-.25.113-.473.341-.666.217-.183.456-.274.718-.274zm8.078 11.878a.976.976 0 01-.189.376l-.034.034-.068.068-.068.052-.069.05-.068.052-.086.017-.102.034-.051.017-.188.017a.907.907 0 01-.667-.273.88.88 0 01-.29-.666v-2.41c-.023-.217.028-.467.153-.752.228-.581.695-1.065 1.402-1.453l.188-.102.17-.103v4.82a.81.81 0 01-.034.222zm-.923-14.663c-1.06 0-1.971.376-2.735 1.128-.752.763-1.128 1.674-1.128 2.734v2.905h2.906v-3.247a.88.88 0 01.29-.666.907.907 0 01.667-.274.96.96 0 01.683.274.907.907 0 01.274.666v2.752l-1.863 1.06c-.376.227-.627.387-.752.478-.33.228-.627.467-.889.718-.706.683-1.128 1.44-1.264 2.272a3.54 3.54 0 00-.052.582v2.717c0 .752.2 1.441.598 2.068A3.883 3.883 0 0019.966 99a3.802 3.802 0 003.366 0h2.205V85.294c0-1.06-.382-1.971-1.145-2.734-.752-.752-1.663-1.128-2.734-1.128zm11.495 14.44a.907.907 0 01-.273.667.965.965 0 01-.684.273.907.907 0 01-.667-.273.907.907 0 01-.273-.666v-10.92c0-.263.091-.485.273-.667a.907.907 0 01.667-.274c.262 0 .49.091.684.274a.907.907 0 01.273.666v10.92zm.051-19.79v5.486a3.9 3.9 0 00-1.008-.136c-1.06 0-1.971.376-2.734 1.128-.752.763-1.128 1.674-1.128 2.734V95.53c0 1.06.376 1.97 1.128 2.734.763.752 1.674 1.128 2.734 1.128 1.07 0 1.982-.376 2.734-1.128.764-.763 1.145-1.675 1.145-2.734V76.082h-2.87zm8.573 12.203v-3.333a.88.88 0 01.29-.666.907.907 0 01.667-.274c.262 0 .49.091.684.274a.907.907 0 01.273.666v3.333h-1.914zm.957-6.853c-1.06 0-1.97.376-2.734 1.128-.752.763-1.128 1.674-1.128 2.734V95.53c0 1.06.376 1.97 1.128 2.734.763.752 1.675 1.128 2.734 1.128 1.071 0 1.983-.376 2.735-1.128.763-.763 1.145-1.675 1.145-2.734v-3.128H43.69v3.47a.907.907 0 01-.273.666.965.965 0 01-.684.273.907.907 0 01-.666-.273.88.88 0 01-.29-.666v-4.717h4.836v-5.862c0-1.06-.382-1.971-1.145-2.734-.752-.752-1.664-1.128-2.735-1.128zm16.537 0c-.866 0-1.55.245-2.05.734-.251.24-.41.479-.48.718-.42-.968-1.19-1.452-2.306-1.452a3.17 3.17 0 00-1.624.427 3.748 3.748 0 00-.513.376c-.022.023-.028.04-.017.051v-.478h-2.87V99h2.904V84.97c0-.263.097-.49.291-.684a.907.907 0 01.666-.274c.263 0 .49.091.684.274a.965.965 0 01.273.683V99h2.94V84.97c0-.263.091-.49.273-.684a.965.965 0 01.684-.274c.262 0 .484.091.666.274a.932.932 0 01.291.683V99h2.905V85.311c0-2.586-.905-3.88-2.717-3.88zm10.282 14.663a.973.973 0 01-.188.376l-.034.034-.069.068-.068.052-.068.05-.069.052-.085.017-.103.034-.05.017-.189.017a.907.907 0 01-.666-.273.88.88 0 01-.291-.666v-2.41c-.023-.217.028-.467.154-.752.228-.581.695-1.065 1.401-1.453l.188-.102.171-.103v4.82a.811.811 0 01-.034.222zm-.923-14.663c-1.06 0-1.97.376-2.734 1.128-.752.763-1.128 1.674-1.128 2.734v2.905h2.905v-3.247a.88.88 0 01.29-.666.907.907 0 01.667-.274c.262 0 .49.091.684.274a.907.907 0 01.273.666v2.752l-1.863 1.06c-.376.227-.626.387-.752.478-.33.228-.626.467-.888.718-.707.683-1.128 1.44-1.265 2.272a3.55 3.55 0 00-.051.582v2.717c0 .752.2 1.441.598 2.068a3.884 3.884 0 003.264 1.794c.581 0 1.14-.131 1.675-.393h2.204V85.294c0-1.06-.381-1.971-1.144-2.734-.752-.752-1.664-1.128-2.735-1.128zm11.683 0a3.14 3.14 0 00-1.606.427 3.748 3.748 0 00-.513.376c-.023.023-.028.04-.017.051v-.478h-2.87V99h2.904V84.97c0-.263.097-.49.29-.684a.907.907 0 01.667-.274c.262 0 .49.091.684.274a.965.965 0 01.273.683V99h2.923V85.311c0-2.586-.912-3.88-2.735-3.88z" fill="#F2032C"/></svg>